<svg xmlns="http://www.w3.org/2000/svg" width="800" height="600" viewBox="0 0 800 600"><rect width="800" height="600" fill="#171c1a"/><path d="M30 30H770V570H30Z" fill="none" stroke="#ae9159" stroke-width="3"/><g fill="#b3cb92" stroke="#e4e8df" stroke-width="2"><path d="M110 140H220V175H110ZM230 140H340V175H230ZM350 140H460V175H350ZM470 140H580V175H470ZM590 140H700V175H590ZM170 190H280V225H170ZM290 190H400V225H290ZM410 190H520V225H410ZM530 190H640V225H530ZM230 240H340V275H230ZM350 240H460V275H350ZM470 240H580V275H470Z"/></g><path d="M490 320L435 392L410 450" fill="none" stroke="#ae9159" stroke-width="3" stroke-dasharray="5 9"/><circle cx="490" cy="320" r="8" fill="#e4e8df"/><path d="M340 480H460V494H340ZM348 474H452V482H348Z" fill="#e4e8df"/><text x="400" y="92" text-anchor="middle" font-family="monospace" font-size="34" fill="#e4e8df" letter-spacing="12">SHATTER</text><text x="400" y="544" text-anchor="middle" font-family="monospace" font-size="16" fill="#b3cb92">FIND YOUR ANGLE. BREAK THROUGH.</text></svg>
